# xmcd CD database file
#
# Track frame offsets:
#	150
#	12196
#	22038
#	41143
#	56524
#	69579
#	88521
#	100080
#	107965
#	116356
#	130694
#	142869
#
# Disc length: 2285 seconds
#
# Revision: 1
# Processed by: cddbd v1.5.1PL0 Copyright (c) Steve Scherf et al.
# Submitted via: CDex 1.50
#
DISCID=9908eb0c
DTITLE=Lutz Eikelmann - Remembering Lonnie Donegan
DYEAR=2004
DGENRE=Jazz
TTITLE0=Back to the Skiffle Craze
TTITLE1=Keep on the Sunny Side
TTITLE2=Lost John
TTITLE3=Jesse James
TTITLE4=Battle of New Orleans
TTITLE5=Ice Cream
TTITLE6=The Lonnie Donegan Gospel Medley
TTITLE7=Railroad Bill
TTITLE8=Express Line 56
TTITLE9=No Other Baby
TTITLE10=Fancy Talking Tinker
TTITLE11=Rock Island Line
EXTD=YEAR: 2004
EXTT0=
EXTT1=
EXTT2=
EXTT3=
EXTT4=
EXTT5=
EXTT6=
EXTT7=
EXTT8=
EXTT9=
EXTT10=
EXTT11=
PLAYORDER=
